<svg width="753" height="814" viewBox="0 0 753 814" fill="none" xmlns="http://www.w3.org/2000/svg">
<g opacity="0.6">
<path opacity="0.6" d="M422.894 736.738L78.4963 537.287C73.6635 534.524 74.2693 529.605 79.8732 526.372L310.569 392.718C316.076 389.485 324.585 389.126 329.418 391.931L673.789 591.45C678.622 594.214 678.016 599.133 672.412 602.366L441.744 735.964C436.168 739.184 427.727 739.543 422.894 736.738V736.738Z" fill="#070716"/>
</g>
<path d="M684.189 519.272L339.874 319.752C335.041 316.989 331.131 309.444 331.131 302.992V35.6715C331.131 29.2051 335.041 26.2344 339.874 29.0393L684.189 228.559C689.022 231.322 692.933 238.867 692.933 245.319V512.64C692.988 519.106 689.078 522.077 684.189 519.272V519.272Z" fill="#3C3E63"/>
<path d="M686.021 522.034L689.835 519.824L688.183 508.48L686.021 522.034Z" fill="#3C3E63"/>
<path d="M681.091 521.165L336.72 321.59C331.887 318.827 327.963 311.282 327.963 304.817V37.565C327.963 31.0985 331.887 28.1278 336.72 30.9327L681.091 230.452C685.924 233.216 689.834 240.76 689.834 247.226V514.478C689.834 520.931 685.924 523.929 681.091 521.165V521.165Z" fill="#9193BE"/>
<path d="M680.484 521.455L336.113 321.935C331.28 319.172 327.356 311.627 327.356 305.161V37.8404C327.356 31.3878 331.28 28.4171 336.113 31.2081L680.484 230.728C685.303 233.492 689.227 241.035 689.227 247.502V514.823C689.227 521.289 685.303 524.259 680.484 521.455V521.455Z" fill="#7274A0"/>
<path d="M428.269 672.256L83.8709 472.805C79.0381 470.042 79.6439 465.123 85.2478 461.889L315.944 328.236C321.451 325.003 329.96 324.644 334.793 327.448L679.164 526.968C683.997 529.731 683.391 534.65 677.787 537.883L447.119 671.482C441.542 674.701 433.102 675.06 428.269 672.256V672.256Z" fill="#3C3E63"/>
<path d="M80.6378 468.234V461.711L87.9352 464.779L80.6378 468.234Z" fill="#3C3E63"/>
<path d="M682.426 531.778V525.409L677.029 527.274L680.609 532.552L682.426 531.778Z" fill="#3C3E63"/>
<path d="M428.269 666.77L83.8709 467.277C79.0381 464.514 79.6439 459.595 85.2478 456.362L315.944 322.694C321.451 319.461 329.96 319.116 334.793 321.921L679.164 521.44C683.997 524.204 683.391 529.124 677.787 532.356L447.119 665.982C441.542 669.215 433.102 669.574 428.269 666.77V666.77Z" fill="#9193BE"/>
<path d="M428.271 665.926L83.8727 466.406C79.0399 463.643 79.6457 458.71 85.2496 455.49L315.945 321.823C321.453 318.59 329.962 318.244 334.795 321.035L679.166 520.569C683.999 523.332 683.393 528.251 677.789 531.485L447.121 665.138C441.544 668.371 433.103 668.716 428.271 665.926V665.926Z" fill="#7274A0"/>
<path d="M309.553 366.91L293.527 357.625C292.15 356.865 292.383 355.538 293.885 354.668L309.195 345.797C309.969 345.365 310.833 345.121 311.718 345.085C312.603 345.049 313.483 345.223 314.29 345.59L330.331 354.876C331.639 355.635 331.473 356.962 329.958 357.832L314.661 366.702C313.886 367.135 313.019 367.379 312.132 367.415C311.245 367.451 310.362 367.278 309.553 366.91Z" fill="#232449"/>
<path d="M332.262 380.062L316.221 370.763C314.912 370.017 315.078 368.69 316.593 367.806L331.889 358.949C332.666 358.516 333.532 358.272 334.419 358.236C335.306 358.201 336.19 358.374 336.998 358.741L353.025 368.027C354.401 368.786 354.168 370.113 352.667 370.983L337.356 379.84C336.584 380.277 335.721 380.526 334.835 380.564C333.949 380.602 333.068 380.43 332.262 380.062V380.062Z" fill="#232449"/>
<path d="M355.211 393.368L339.184 384.069C337.807 383.309 338.042 381.984 339.542 381.113L354.853 372.256C355.625 371.818 356.489 371.57 357.374 371.532C358.259 371.493 359.142 371.665 359.947 372.035L375.988 381.334C377.365 382.08 377.131 383.406 375.617 384.291L360.319 393.148C359.543 393.577 358.677 393.821 357.791 393.86C356.905 393.899 356.022 393.73 355.211 393.368V393.368Z" fill="#232449"/>
<path d="M377.65 406.358L361.609 397.073C360.302 396.313 360.467 394.987 361.981 394.116L377.278 385.245C378.054 384.813 378.92 384.57 379.807 384.533C380.694 384.497 381.578 384.671 382.386 385.038L398.427 394.324C399.735 395.083 399.57 396.41 398.055 397.28L382.758 406.151C381.982 406.584 381.116 406.828 380.228 406.863C379.341 406.899 378.458 406.726 377.65 406.358Z" fill="#232449"/>
<path d="M400.363 419.511L384.323 410.226C382.946 409.466 383.18 408.14 384.694 407.269L399.991 398.398C400.768 397.966 401.634 397.723 402.521 397.686C403.408 397.65 404.291 397.824 405.1 398.191L421.127 407.477C422.434 408.236 422.269 409.563 420.754 410.433L405.457 419.304C404.684 419.736 403.82 419.98 402.935 420.016C402.05 420.052 401.169 419.879 400.363 419.511Z" fill="#232449"/>
<path d="M423.049 432.734L407.022 423.449C405.714 422.689 405.865 421.363 407.38 420.492L422.677 411.621C423.453 411.19 424.32 410.946 425.207 410.909C426.094 410.873 426.976 411.046 427.786 411.414L443.826 420.699C445.134 421.46 444.969 422.785 443.454 423.656L428.157 432.527C427.381 432.959 426.514 433.203 425.628 433.239C424.741 433.275 423.857 433.102 423.049 432.734V432.734Z" fill="#232449"/>
<path d="M445.756 445.821L429.715 436.536C428.407 435.775 428.573 434.449 430.088 433.579L445.385 424.708C446.161 424.276 447.027 424.032 447.914 423.996C448.801 423.96 449.684 424.133 450.493 424.501L466.52 433.787C467.828 434.546 467.663 435.873 466.161 436.743L450.851 445.6C450.079 446.037 449.216 446.286 448.33 446.324C447.444 446.362 446.563 446.19 445.756 445.821Z" fill="#232449"/>
<path d="M468.446 458.989L452.419 449.689C451.111 448.929 451.276 447.617 452.776 446.732L468.088 437.875C468.859 437.438 469.723 437.19 470.608 437.152C471.493 437.113 472.376 437.286 473.182 437.654L489.222 446.954C490.6 447.713 490.365 449.026 488.851 449.91L473.526 458.753C472.756 459.188 471.896 459.437 471.013 459.478C470.131 459.518 469.251 459.35 468.446 458.989V458.989Z" fill="#232449"/>
<path d="M491.15 472.112L475.11 462.828C473.802 462.067 473.967 460.741 475.481 459.87L490.779 451.014C491.552 450.576 492.419 450.329 493.306 450.29C494.194 450.251 495.078 450.424 495.887 450.793L511.913 460.092C513.222 460.838 513.056 462.165 511.556 463.049L496.259 471.905C495.482 472.338 494.616 472.582 493.729 472.617C492.842 472.654 491.958 472.481 491.15 472.112V472.112Z" fill="#232449"/>
<path d="M513.843 485.239L497.816 475.954C496.508 475.194 496.673 473.868 498.175 472.997L513.458 464.154C514.231 463.722 515.095 463.478 515.98 463.442C516.865 463.406 517.746 463.58 518.552 463.947L534.592 473.232C535.901 473.992 535.736 475.319 534.221 476.189L518.965 485.059C518.185 485.49 517.315 485.73 516.426 485.761C515.536 485.792 514.652 485.614 513.843 485.239Z" fill="#232449"/>
<path d="M536.546 498.423L520.506 489.139C519.198 488.378 519.363 487.052 520.877 486.181L536.174 477.311C536.951 476.879 537.817 476.635 538.704 476.599C539.591 476.563 540.474 476.735 541.282 477.104L557.323 486.389C558.631 487.149 558.466 488.475 556.952 489.346L541.655 498.217C540.878 498.648 540.012 498.893 539.125 498.928C538.237 498.965 537.355 498.792 536.546 498.423V498.423Z" fill="#232449"/>
<path d="M559.249 511.575L543.209 502.29C541.901 501.53 542.066 500.203 543.581 499.333L558.892 490.462C559.667 490.03 560.534 489.786 561.421 489.75C562.308 489.714 563.191 489.887 564 490.255L580.026 499.541C581.403 500.3 581.17 501.627 579.655 502.497L564.399 511.367C563.618 511.809 562.744 512.058 561.849 512.094C560.954 512.129 560.063 511.952 559.249 511.575V511.575Z" fill="#232449"/>
<path d="M581.944 524.73L565.917 515.432C564.54 514.671 564.76 513.359 566.275 512.474L581.572 503.617C582.348 503.183 583.213 502.937 584.1 502.898C584.987 502.86 585.871 503.03 586.681 503.397L602.721 512.696C604.029 513.455 603.864 514.768 602.349 515.652L587.052 524.509C586.279 524.947 585.412 525.195 584.524 525.234C583.637 525.271 582.753 525.099 581.944 524.73Z" fill="#232449"/>
<path d="M615.574 544.213L588.601 528.586C587.293 527.825 587.458 526.499 588.973 525.628L604.325 516.771C605.099 516.334 605.965 516.086 606.852 516.048C607.74 516.009 608.625 516.182 609.433 516.551L636.338 532.219C637.646 532.98 637.481 534.305 635.979 535.176L620.669 544.047C619.892 544.473 619.026 544.709 618.141 544.738C617.257 544.767 616.377 544.587 615.574 544.213Z" fill="#232449"/>
<path d="M321.237 399.16L305.196 389.902C303.819 389.142 304.053 387.815 305.567 386.945L320.864 378.075C321.641 377.642 322.507 377.398 323.394 377.362C324.281 377.327 325.164 377.499 325.973 377.867L342 387.139C343.308 387.898 343.142 389.225 341.642 390.095L326.33 398.966C325.556 399.396 324.691 399.637 323.806 399.671C322.922 399.705 322.041 399.53 321.237 399.16V399.16Z" fill="#232449"/>
<path d="M343.965 412.342L327.939 403.057C326.63 402.297 326.795 400.97 328.296 400.1L343.607 391.284C344.381 390.853 345.244 390.609 346.13 390.573C347.015 390.536 347.895 390.71 348.702 391.077L364.756 400.307C366.064 401.067 365.899 402.394 364.384 403.264L349.087 412.135C348.309 412.569 347.441 412.815 346.551 412.851C345.661 412.886 344.776 412.712 343.965 412.342V412.342Z" fill="#232449"/>
<path d="M366.711 425.508L350.67 416.223C349.294 415.463 349.527 414.137 351.042 413.266L366.339 404.395C367.115 403.964 367.982 403.72 368.869 403.684C369.756 403.647 370.639 403.82 371.448 404.188L387.474 413.473C388.782 414.234 388.617 415.56 387.116 416.43L371.806 425.301C371.031 425.733 370.168 425.976 369.282 426.013C368.398 426.049 367.517 425.876 366.711 425.508Z" fill="#232449"/>
<path d="M389.441 438.689L373.401 429.391C372.093 428.645 372.258 427.318 373.772 426.434L389.069 417.536C389.845 417.102 390.71 416.855 391.598 416.817C392.485 416.778 393.368 416.949 394.177 417.314L410.191 426.656C411.499 427.415 411.333 428.727 409.819 429.612L394.521 438.469C393.752 438.902 392.89 439.147 392.007 439.186C391.125 439.225 390.246 439.054 389.441 438.689V438.689Z" fill="#232449"/>
<path d="M411.995 451.762L395.967 442.408C394.66 441.648 394.825 440.335 396.326 439.451L411.637 430.595C412.409 430.157 413.272 429.909 414.157 429.87C415.043 429.832 415.925 430.004 416.731 430.373L432.771 439.672C434.149 440.418 433.915 441.745 432.4 442.629L417.076 451.541C416.304 451.972 415.443 452.215 414.561 452.253C413.679 452.292 412.801 452.123 411.995 451.762Z" fill="#232449"/>
<path d="M434.742 464.929L418.701 455.643C417.393 454.884 417.559 453.557 419.073 452.687L434.37 443.788C435.146 443.356 436.012 443.112 436.899 443.076C437.787 443.04 438.67 443.213 439.478 443.581L455.505 452.866C456.813 453.626 456.648 454.953 455.147 455.823L439.836 464.693C439.065 465.13 438.202 465.379 437.317 465.42C436.432 465.46 435.55 465.292 434.742 464.929V464.929Z" fill="#232449"/>
<path d="M457.474 478.097L441.433 468.811C440.126 468.052 440.291 466.725 441.806 465.855L457.103 456.998C457.876 456.561 458.743 456.312 459.63 456.274C460.518 456.236 461.402 456.408 462.211 456.776L478.252 466.076C479.56 466.822 479.395 468.149 477.879 469.033L462.583 477.89C461.807 478.322 460.94 478.566 460.053 478.602C459.166 478.638 458.283 478.465 457.474 478.097Z" fill="#232449"/>
<path d="M480.208 491.276L464.181 481.992C462.873 481.231 463.039 479.905 464.553 479.034L479.85 470.164C480.624 469.732 481.488 469.488 482.373 469.452C483.257 469.416 484.139 469.589 484.944 469.957L500.985 479.242C502.293 480.002 502.128 481.328 500.614 482.199L485.316 491.069C484.54 491.501 483.674 491.746 482.786 491.781C481.899 491.818 481.016 491.645 480.208 491.276Z" fill="#232449"/>
<path d="M502.953 504.446L486.912 495.162C485.536 494.401 485.769 493.075 487.285 492.204L502.581 483.334C503.357 482.902 504.224 482.658 505.111 482.622C505.998 482.585 506.881 482.759 507.69 483.127L523.717 492.412C525.025 493.172 524.873 494.498 523.358 495.369L508.061 504.239C507.285 504.671 506.419 504.916 505.532 504.951C504.645 504.987 503.762 504.815 502.953 504.446V504.446Z" fill="#232449"/>
<path d="M525.686 517.626L509.659 508.327C508.351 507.581 508.516 506.254 510.016 505.37L525.328 496.514C526.101 496.082 526.965 495.837 527.849 495.8C528.734 495.761 529.614 495.929 530.422 496.292L546.505 505.591C547.812 506.351 547.647 507.678 546.132 508.548L530.835 517.404C530.056 517.849 529.183 518.101 528.287 518.139C527.392 518.178 526.5 518.002 525.686 517.626V517.626Z" fill="#232449"/>
<path d="M548.432 530.837L532.392 521.552C531.084 520.792 531.249 519.466 532.764 518.595L548.061 509.724C548.838 509.292 549.703 509.049 550.59 509.012C551.477 508.976 552.361 509.15 553.169 509.517L569.196 518.803C570.504 519.562 570.339 520.888 568.838 521.759L553.527 530.63C552.753 531.062 551.889 531.306 551.005 531.342C550.119 531.378 549.239 531.205 548.432 530.837Z" fill="#232449"/>
<path d="M571.157 543.977L555.131 534.678C553.823 533.919 553.974 532.606 555.489 531.722L570.786 522.865C571.561 522.431 572.426 522.184 573.313 522.146C574.2 522.107 575.085 522.278 575.894 522.644L591.935 531.942C593.243 532.703 593.077 534.015 591.563 534.9L576.265 543.757C575.492 544.194 574.625 544.443 573.738 544.48C572.85 544.519 571.966 544.347 571.157 543.977V543.977Z" fill="#232449"/>
<path d="M298.489 385.991L271.529 370.364C270.221 369.605 270.387 368.292 271.887 367.408L287.199 358.551C287.97 358.113 288.834 357.865 289.719 357.826C290.605 357.789 291.486 357.96 292.292 358.33L319.321 373.957C320.629 374.717 320.464 376.044 318.949 376.914L303.597 385.757C302.823 386.193 301.958 386.442 301.071 386.483C300.183 386.524 299.299 386.355 298.489 385.991V385.991Z" fill="#232449"/>
<path d="M614.476 545.055L598.449 535.769C597.712 535.392 596.896 535.194 596.068 535.194C595.239 535.194 594.423 535.392 593.686 535.769L577.521 545.138C576.144 545.898 576.144 547.128 577.521 547.901L578.801 548.647C580.013 549.338 579.999 550.485 578.801 551.19L561.645 561.082C560.269 561.857 560.269 563.086 561.645 563.847L571.848 569.76C572.584 570.135 573.398 570.33 574.223 570.33C575.048 570.33 575.862 570.135 576.598 569.76L592.598 560.502L595.902 558.582L598.284 557.2L600.68 555.819L614.449 547.846C615.784 547.045 615.784 545.815 614.476 545.055V545.055Z" fill="#232449"/>
<path d="M221.639 417.949L205.612 408.664C204.236 407.904 204.469 406.577 205.97 405.706L221.281 396.809C222.054 396.377 222.919 396.133 223.803 396.097C224.688 396.061 225.569 396.233 226.375 396.602L242.416 405.886C243.724 406.647 243.558 407.973 242.044 408.844L226.747 417.714C225.973 418.151 225.108 418.4 224.221 418.44C223.333 418.481 222.449 418.313 221.639 417.949V417.949Z" fill="#232449"/>
<path d="M244.277 431.063L228.25 421.778C226.872 421.018 227.107 419.691 228.607 418.821L243.919 409.951C244.692 409.518 245.556 409.274 246.441 409.239C247.326 409.203 248.207 409.375 249.013 409.743L265.053 419.028C266.361 419.788 266.196 421.115 264.682 421.986L249.385 430.856C248.608 431.288 247.742 431.532 246.856 431.568C245.968 431.604 245.085 431.431 244.277 431.063Z" fill="#232449"/>
<path d="M266.913 444.176L250.886 434.891C249.509 434.131 249.73 432.804 251.244 431.933L266.541 423.063C267.318 422.631 268.184 422.387 269.07 422.351C269.958 422.315 270.841 422.488 271.649 422.856L287.649 432.141C288.957 432.901 288.792 434.228 287.277 435.098L271.98 443.968C271.209 444.394 270.35 444.634 269.471 444.67C268.591 444.707 267.716 444.537 266.913 444.176V444.176Z" fill="#232449"/>
<path d="M459.676 555.859L443.636 546.561C442.259 545.814 442.493 544.488 444.007 543.603L459.305 534.746C460.08 534.312 460.946 534.066 461.833 534.027C462.72 533.989 463.603 534.159 464.413 534.526L480.412 543.825C481.789 544.584 481.555 545.897 480.041 546.781L464.771 555.707C463.994 556.133 463.127 556.37 462.242 556.396C461.356 556.423 460.478 556.238 459.676 555.859Z" fill="#232449"/>
<path d="M482.3 568.973L466.273 559.688C464.895 558.928 465.13 557.601 466.63 556.731L481.942 547.861C482.715 547.428 483.58 547.184 484.464 547.148C485.349 547.113 486.23 547.285 487.036 547.653L503.076 556.938C504.454 557.698 504.219 559.025 502.705 559.895L487.408 568.766C486.631 569.198 485.766 569.442 484.879 569.478C483.992 569.514 483.108 569.341 482.3 568.973V568.973Z" fill="#232449"/>
<path d="M504.933 582.085L488.906 572.801C487.598 572.04 487.763 570.714 489.264 569.843L504.575 560.973C505.348 560.541 506.213 560.297 507.097 560.261C507.982 560.225 508.863 560.398 509.669 560.766L525.71 570.051C527.087 570.811 526.852 572.138 525.338 573.008L510.041 581.878C509.264 582.311 508.399 582.555 507.512 582.59C506.625 582.626 505.741 582.454 504.933 582.085Z" fill="#232449"/>
<path d="M527.571 595.198L511.543 585.913C510.236 585.153 510.401 583.826 511.901 582.956L527.226 574.086C528 573.653 528.864 573.409 529.749 573.374C530.633 573.338 531.515 573.51 532.32 573.879L548.361 583.163C549.738 583.924 549.504 585.25 547.989 586.121L532.734 594.991C531.95 595.432 531.074 595.681 530.177 595.717C529.279 595.753 528.386 595.575 527.571 595.198V595.198Z" fill="#232449"/>
<path d="M295.373 460.672L273.508 448.001C272.2 447.241 272.366 445.915 273.88 445.044L289.177 436.174C289.953 435.742 290.819 435.498 291.706 435.462C292.593 435.426 293.477 435.598 294.285 435.967L316.15 448.637C317.527 449.397 317.292 450.709 315.778 451.594L300.481 460.451C299.707 460.888 298.841 461.137 297.954 461.175C297.066 461.213 296.181 461.041 295.373 460.672Z" fill="#232449"/>
<path d="M437.038 542.748L415.174 530.077C413.796 529.317 414.031 527.99 415.531 527.12L430.843 518.25C431.616 517.817 432.48 517.573 433.365 517.537C434.25 517.501 435.131 517.674 435.937 518.042L457.802 530.713C459.11 531.472 458.945 532.785 457.443 533.669L442.133 542.526C441.361 542.963 440.498 543.212 439.612 543.25C438.727 543.289 437.845 543.116 437.038 542.748V542.748Z" fill="#232449"/>
<path d="M408.562 526.249L301.978 464.514C300.67 463.754 300.835 462.428 302.337 461.558L317.647 452.687C318.421 452.254 319.285 452.011 320.169 451.974C321.055 451.939 321.935 452.112 322.742 452.479L429.339 514.256C430.648 515.016 430.483 516.343 428.968 517.213L413.671 526.083C412.891 526.509 412.023 526.746 411.136 526.775C410.249 526.804 409.368 526.624 408.562 526.249V526.249Z" fill="#232449"/>
<path d="M305.399 415.492L289.372 406.207C288.064 405.447 288.23 404.121 289.745 403.25L305.042 394.379C305.816 393.948 306.679 393.704 307.564 393.668C308.449 393.631 309.33 393.805 310.136 394.172L326.204 403.458C327.581 404.218 327.347 405.543 325.832 406.414L310.535 415.285C309.756 415.722 308.884 415.968 307.992 416.004C307.099 416.04 306.211 415.865 305.399 415.492Z" fill="#232449"/>
<path d="M328.075 428.591L312.048 419.291C310.74 418.532 310.906 417.219 312.406 416.335L327.717 407.478C328.49 407.043 329.353 406.797 330.238 406.759C331.123 406.72 332.005 406.891 332.811 407.256L348.852 416.556C350.228 417.315 349.995 418.628 348.481 419.512L333.183 428.369C332.409 428.807 331.543 429.055 330.655 429.094C329.768 429.132 328.884 428.959 328.075 428.591V428.591Z" fill="#232449"/>
<path d="M350.749 441.758L334.709 432.473C333.331 431.713 333.566 430.386 335.08 429.516L350.378 420.646C351.154 420.213 352.021 419.969 352.907 419.934C353.794 419.897 354.677 420.07 355.485 420.439L371.512 429.723C372.89 430.484 372.669 431.81 371.155 432.681L355.858 441.551C355.081 441.983 354.215 442.227 353.328 442.263C352.441 442.299 351.558 442.126 350.749 441.758V441.758Z" fill="#232449"/>
<path d="M373.433 454.841L357.392 445.556C356.015 444.796 356.249 443.47 357.763 442.599L373.019 433.784C373.796 433.351 374.662 433.107 375.549 433.072C376.436 433.036 377.32 433.208 378.128 433.577L394.155 442.861C395.531 443.622 395.297 444.948 393.797 445.819L378.527 454.689C377.749 455.113 376.883 455.346 375.997 455.373C375.113 455.399 374.234 455.217 373.433 454.841V454.841Z" fill="#232449"/>
<path d="M396.092 468.038L380.065 458.753C378.689 457.993 378.922 456.666 380.423 455.796L395.734 446.926C396.508 446.493 397.372 446.249 398.257 446.213C399.142 446.178 400.022 446.35 400.829 446.718L416.869 456.003C418.246 456.763 418.013 458.09 416.497 458.96L401.201 467.83C400.424 468.263 399.558 468.507 398.671 468.543C397.784 468.579 396.9 468.406 396.092 468.038Z" fill="#232449"/>
<path d="M418.764 481.178L402.737 471.879C401.36 471.119 401.581 469.806 403.095 468.922L418.447 460.065C419.221 459.628 420.087 459.38 420.975 459.341C421.862 459.303 422.746 459.476 423.556 459.844L439.595 469.144C440.904 469.903 440.739 471.216 439.224 472.1L423.927 480.957C423.146 481.404 422.27 481.657 421.372 481.695C420.474 481.733 419.58 481.556 418.764 481.178Z" fill="#232449"/>
<path d="M441.445 494.305L425.405 485.021C424.097 484.26 424.262 482.934 425.776 482.063L441.073 473.193C441.85 472.761 442.716 472.517 443.603 472.481C444.489 472.445 445.373 472.617 446.181 472.986L462.208 482.271C463.585 483.031 463.351 484.357 461.851 485.228L446.539 494.098C445.766 494.53 444.902 494.774 444.017 494.81C443.132 494.846 442.251 494.674 441.445 494.305V494.305Z" fill="#232449"/>
<path d="M464.125 507.444L448.084 498.159C446.776 497.399 446.942 496.073 448.456 495.202L463.753 486.331C464.529 485.899 465.395 485.656 466.282 485.619C467.17 485.583 468.053 485.756 468.861 486.124L484.888 495.41C486.196 496.169 486.031 497.495 484.517 498.366L469.219 507.237C468.446 507.668 467.581 507.912 466.697 507.948C465.812 507.985 464.931 507.812 464.125 507.444Z" fill="#232449"/>
<path d="M486.783 520.584L470.77 511.299C469.462 510.539 469.627 509.213 471.128 508.342L486.439 499.471C487.213 499.039 488.077 498.795 488.961 498.76C489.847 498.723 490.727 498.896 491.534 499.264L507.574 508.549C508.883 509.309 508.717 510.635 507.202 511.506L491.905 520.377C491.128 520.811 490.258 521.056 489.369 521.092C488.479 521.129 487.593 520.954 486.783 520.584V520.584Z" fill="#232449"/>
<path d="M509.46 533.722L493.419 524.423C492.111 523.663 492.276 522.351 493.791 521.466L509.088 512.61C509.863 512.172 510.728 511.924 511.616 511.885C512.503 511.847 513.388 512.019 514.197 512.389L530.237 521.687C531.545 522.434 531.38 523.76 529.865 524.644L514.568 533.501C513.793 533.935 512.927 534.182 512.04 534.221C511.153 534.258 510.27 534.088 509.46 533.722Z" fill="#232449"/>
<path d="M532.145 546.853L516.104 537.568C514.796 536.809 514.962 535.482 516.476 534.611L531.774 525.74C532.549 525.308 533.416 525.065 534.303 525.028C535.19 524.992 536.073 525.166 536.881 525.533L552.908 534.819C554.285 535.578 554.051 536.905 552.55 537.775L537.24 546.646C536.466 547.078 535.601 547.322 534.717 547.358C533.832 547.394 532.951 547.221 532.145 546.853Z" fill="#232449"/>
<path d="M554.761 559.991L538.735 550.706C537.426 549.947 537.591 548.62 539.107 547.749L554.403 538.878C555.178 538.447 556.041 538.203 556.927 538.167C557.811 538.13 558.692 538.304 559.498 538.671L575.539 547.957C576.847 548.717 576.682 550.043 575.166 550.913L559.911 559.853C559.124 560.282 558.248 560.517 557.352 560.541C556.458 560.565 555.57 560.377 554.761 559.991V559.991Z" fill="#232449"/>
<path d="M282.734 402.338L249.566 383.132C248.188 382.373 248.422 381.046 249.937 380.176L265.234 371.305C266.011 370.873 266.877 370.629 267.764 370.593C268.651 370.557 269.534 370.73 270.342 371.097L303.497 390.304C304.874 391.064 304.641 392.39 303.139 393.261L287.829 402.131C287.055 402.564 286.191 402.808 285.306 402.843C284.421 402.879 283.541 402.706 282.734 402.338V402.338Z" fill="#232449"/>
<path d="M272.145 421.681L256.118 412.424C254.81 411.664 254.961 410.351 256.477 409.466L271.773 400.61C272.548 400.172 273.413 399.925 274.301 399.886C275.189 399.847 276.072 400.02 276.882 400.389L292.923 409.688C294.23 410.434 294.065 411.761 292.55 412.645L277.253 421.501C276.475 421.93 275.607 422.168 274.72 422.2C273.833 422.231 272.952 422.053 272.145 421.681V421.681Z" fill="#232449"/>
<path d="M294.822 434.848L278.781 425.564C277.473 424.803 277.639 423.477 279.153 422.606L294.45 413.736C295.226 413.304 296.092 413.06 296.979 413.024C297.866 412.987 298.75 413.161 299.558 413.529L315.585 422.814C316.961 423.574 316.728 424.9 315.227 425.771L299.916 434.641C299.143 435.074 298.278 435.318 297.394 435.353C296.509 435.389 295.628 435.216 294.822 434.848Z" fill="#232449"/>
<path d="M317.488 447.936L301.419 438.691C300.042 437.932 300.276 436.62 301.791 435.735L317.088 426.878C317.864 426.444 318.729 426.197 319.616 426.159C320.503 426.121 321.387 426.291 322.196 426.657L338.237 435.956C339.613 436.716 339.38 438.028 337.865 438.913L322.568 447.77C321.793 448.194 320.93 448.43 320.048 448.458C319.165 448.488 318.288 448.309 317.488 447.936Z" fill="#232449"/>
<path d="M340.15 461.116L324.123 451.83C322.745 451.071 322.98 449.744 324.494 448.874L339.791 440.003C340.565 439.571 341.429 439.327 342.314 439.291C343.199 439.255 344.08 439.428 344.886 439.796L360.926 449.081C362.234 449.841 362.069 451.167 360.555 452.038L345.258 460.909C344.481 461.341 343.615 461.584 342.728 461.621C341.841 461.657 340.958 461.483 340.15 461.116Z" fill="#232449"/>
<path d="M362.828 474.254L346.856 464.969C345.548 464.209 345.713 462.882 347.228 462.012L362.525 453.142C363.301 452.709 364.168 452.465 365.055 452.429C365.942 452.394 366.825 452.566 367.634 452.934L383.661 462.219C384.969 462.979 384.817 464.306 383.302 465.176L368.005 474.033C367.223 474.482 366.344 474.736 365.443 474.775C364.543 474.814 363.646 474.635 362.828 474.254Z" fill="#232449"/>
<path d="M385.489 487.382L369.462 478.096C368.154 477.336 368.319 476.01 369.821 475.14L385.131 466.268C385.905 465.836 386.769 465.593 387.653 465.556C388.539 465.52 389.419 465.694 390.226 466.061L406.267 475.347C407.574 476.106 407.409 477.433 405.894 478.303L390.597 487.174C389.821 487.606 388.955 487.85 388.068 487.887C387.181 487.922 386.297 487.749 385.489 487.382V487.382Z" fill="#232449"/>
<path d="M408.164 500.523L392.124 491.239C390.816 490.478 390.981 489.152 392.496 488.281L407.793 479.411C408.57 478.979 409.435 478.735 410.322 478.699C411.209 478.662 412.093 478.836 412.901 479.204L428.928 488.489C430.236 489.249 430.071 490.575 428.57 491.446L413.273 500.316C412.497 500.748 411.63 500.993 410.743 501.028C409.856 501.064 408.973 500.892 408.164 500.523Z" fill="#232449"/>
<path d="M430.844 513.663L414.818 504.364C413.51 503.604 413.675 502.292 415.176 501.407L430.486 492.55C431.258 492.113 432.122 491.865 433.007 491.827C433.893 491.788 434.775 491.96 435.581 492.33L451.622 501.628C452.93 502.375 452.764 503.701 451.25 504.585L435.952 513.442C435.178 513.876 434.312 514.123 433.425 514.161C432.538 514.199 431.654 514.029 430.844 513.663Z" fill="#232449"/>
<path d="M453.508 526.787L437.467 517.501C436.159 516.742 436.324 515.416 437.838 514.545L453.135 505.674C453.912 505.242 454.778 504.998 455.665 504.963C456.552 504.926 457.435 505.099 458.244 505.468L474.271 514.752C475.579 515.513 475.413 516.839 473.913 517.709L458.601 526.58C457.828 527.012 456.964 527.255 456.079 527.292C455.195 527.328 454.313 527.155 453.508 526.787Z" fill="#232449"/>
<path d="M476.173 539.927L460.146 530.628C458.838 529.882 459.003 528.555 460.504 527.672L475.814 518.815C476.587 518.38 477.451 518.134 478.336 518.096C479.22 518.057 480.102 518.228 480.909 518.593L496.936 527.892C498.244 528.652 498.079 529.965 496.565 530.85L481.267 539.706C480.495 540.142 479.631 540.389 478.746 540.427C477.862 540.465 476.979 540.294 476.173 539.927Z" fill="#232449"/>
<path d="M498.852 553.055L482.811 543.769C481.504 543.01 481.669 541.683 483.183 540.813L498.48 531.942C499.256 531.509 500.122 531.266 501.009 531.229C501.897 531.193 502.78 531.367 503.588 531.734L519.615 541.02C520.923 541.779 520.758 543.106 519.257 543.976L503.946 552.847C503.173 553.279 502.308 553.523 501.424 553.56C500.539 553.595 499.658 553.422 498.852 553.055Z" fill="#232449"/>
<path d="M549.574 582.461L505.513 556.914C504.205 556.153 504.356 554.827 505.872 553.956L521.168 545.086C521.944 544.654 522.811 544.41 523.698 544.374C524.585 544.337 525.468 544.51 526.277 544.879L570.337 570.427C571.644 571.173 571.479 572.499 569.965 573.383L554.667 582.24C553.895 582.672 553.031 582.917 552.147 582.956C551.263 582.994 550.381 582.825 549.574 582.461V582.461Z" fill="#232449"/>
<path d="M249.484 408.583L227.62 395.912C226.242 395.153 226.477 393.826 227.978 392.956L243.288 384.099C244.06 383.662 244.924 383.413 245.809 383.375C246.694 383.337 247.577 383.509 248.383 383.877L270.247 396.548C271.555 397.308 271.39 398.635 269.89 399.505L254.606 408.376C253.829 408.812 252.96 409.059 252.07 409.094C251.18 409.13 250.294 408.955 249.484 408.583V408.583Z" fill="#232449"/>
<path d="M638.354 531.017L316.385 344.485C315.007 343.739 315.242 342.412 316.756 341.529L324.412 337.107C325.184 336.673 326.048 336.426 326.932 336.388C327.818 336.35 328.699 336.52 329.506 336.886L651.475 523.417C652.783 524.177 652.618 525.49 651.103 526.374L643.461 530.837C642.683 531.265 641.816 531.504 640.929 531.535C640.042 531.566 639.16 531.389 638.354 531.017V531.017Z" fill="#232449"/>
<path d="M438.9 552.226C438.44 553.232 437.653 554.049 436.67 554.548L348.081 605.878C346.589 606.71 344.925 607.18 343.22 607.25C341.515 607.318 339.818 606.987 338.264 606.279L186.808 518.554C186.16 518.217 185.638 517.679 185.321 517.02C184.769 515.638 185.541 514.105 187.55 512.944L276.153 461.599C277.644 460.767 279.31 460.298 281.014 460.228C282.719 460.159 284.416 460.491 285.97 461.199L437.426 548.924C438.039 549.19 438.529 549.677 438.802 550.288C439.075 550.899 439.11 551.59 438.9 552.226V552.226Z" fill="#575981"/>
<path d="M438.899 552.226C438.439 553.231 437.652 554.049 436.669 554.547L348.08 605.878C346.589 606.71 344.924 607.179 343.219 607.249C341.514 607.318 339.817 606.986 338.263 606.278L186.807 518.553C186.159 518.216 185.637 517.678 185.32 517.019C185.789 516.024 186.573 515.213 187.55 514.712L276.152 463.381C277.643 462.548 279.307 462.077 281.012 462.004C282.716 461.933 284.415 462.262 285.969 462.966L437.425 550.706C438.069 551.038 438.586 551.572 438.899 552.226V552.226Z" fill="#383961"/>
<path d="M662.858 516.866L340.889 330.335C340.18 329.809 339.603 329.124 339.204 328.335C338.805 327.546 338.594 326.674 338.589 325.789V321.99C338.589 320.235 339.65 319.434 340.958 320.193L662.927 506.724C663.648 507.241 664.239 507.92 664.65 508.708C665.061 509.494 665.283 510.368 665.295 511.257V515.057C665.226 516.825 664.166 517.627 662.858 516.866V516.866Z" fill="#232449"/>
<path opacity="0.3" d="M676.389 497.855L330.737 297.595L330.917 40.9678C330.917 38.34 332.755 37.2791 335.025 38.5569L672.461 234.092C673.656 234.873 674.652 235.927 675.366 237.167C676.08 238.407 676.492 239.798 676.569 241.229L676.389 497.855Z" fill="url(#paint0_linear)"/>
<path d="M677.196 506.657L339.761 311.158C335.028 308.41 331.196 301.057 331.196 294.727V42.8214C331.196 36.4928 335.028 33.5757 339.761 36.3241L677.196 231.847C681.929 234.584 685.761 241.937 685.761 248.278V500.16C685.761 506.512 681.929 509.406 677.196 506.657Z" fill="#141530"/>
<path d="M540.567 201.523L517.659 188.252V179.958L540.567 193.23V201.523Z" fill="#A298E2"/>
<path d="M593.517 232.224L544.855 204.004V195.71L593.517 223.93V232.224Z" fill="#F9DD79"/>
<path d="M540.567 228.053L517.659 214.792V206.5L540.567 219.759V228.053Z" fill="#A298E2"/>
<path d="M560.976 240.083L544.855 230.548V222.254L560.976 231.789V240.083Z" fill="#4D3BFF"/>
<path d="M540.567 241.325L517.659 228.053V219.759L540.567 233.031V241.325Z" fill="#A298E2"/>
<path d="M572.049 259.562L544.853 243.807V235.514L572.049 251.269V259.562Z" fill="#4D3BFF"/>
<path d="M540.567 254.585L517.659 241.326V233.032L540.567 246.304V254.585Z" fill="#A298E2"/>
<path d="M616.58 298.535L544.855 257.08V248.786L616.58 290.254V298.535Z" fill="#FF8657"/>
<path d="M540.567 214.794L517.659 201.522V193.229L540.567 206.501V214.794Z" fill="#A298E2"/>
<path d="M634.2 269.099L544.853 217.277V208.983L634.2 260.806V269.099Z" fill="#A298E2"/>
<path d="M540.567 267.855L517.659 254.583V246.29L540.567 259.561V267.855Z" fill="#A298E2"/>
<path d="M622.14 315.954L544.853 270.353V262.059L622.14 307.661V315.954Z" fill="#C33AFC"/>
<path d="M540.567 294.399L517.659 281.127V272.833L540.567 286.105V294.399Z" fill="#A298E2"/>
<path d="M635.031 349.127L544.855 296.883V288.589L635.031 340.833V349.127Z" fill="#A298E2"/>
<path d="M540.567 307.659L517.659 294.399V286.106L540.567 299.365V307.659Z" fill="#A298E2"/>
<path d="M572.049 325.911L544.853 310.143V301.862L572.049 317.617V325.911Z" fill="#C33AFC"/>
<path d="M540.567 320.933L517.659 307.661V299.367L540.567 312.639V320.933Z" fill="#A298E2"/>
<path d="M600.422 355.758L544.853 323.415V315.123L600.422 347.464V355.758Z" fill="#4D3BFF"/>
<path d="M540.567 281.128L517.659 267.856V259.562L540.567 272.834V281.128Z" fill="#A298E2"/>
<path d="M554.872 289.421L544.853 283.61V275.318L554.872 281.128V289.421Z" fill="#4D3BFF"/>
<path d="M540.567 334.204L517.659 320.932V312.638L540.567 325.91V334.204Z" fill="#A298E2"/>
<path d="M580.723 357.421L544.855 336.688V328.394L580.723 349.129V357.421Z" fill="#C33AFC"/>
<path d="M540.567 360.736L517.659 347.464V339.17L540.567 352.442V360.736Z" fill="#A298E2"/>
<path d="M597.191 393.162L544.853 363.218V354.926L597.191 384.868V393.162Z" fill="#FF8657"/>
<path d="M540.567 374.009L517.659 360.737V352.443L540.567 365.715V374.009Z" fill="#A298E2"/>
<path d="M551.388 380.636L544.853 376.489V368.196L551.388 372.343V380.636Z" fill="#A298E2"/>
<path d="M540.567 387.265L517.659 374.006V365.712L540.567 378.972V387.265Z" fill="#A298E2"/>
<path d="M574.872 407.108L544.853 389.762V381.468L574.872 398.815V407.108Z" fill="#F9DD79"/>
<path d="M540.569 347.463L517.661 334.204V325.898L540.569 339.169V347.463Z" fill="#A298E2"/>
<path d="M586.62 374.006L544.853 349.945V341.663L586.62 365.712V374.006Z" fill="#4D3BFF"/>
<path d="M392.407 118.597L369.499 105.325V97.0318L392.407 110.304V118.597Z" fill="#A298E2"/>
<path d="M494.028 177.471L396.693 121.081V112.787L494.028 169.177V177.471Z" fill="#C33AFC"/>
<path d="M392.409 145.128L369.501 131.856V123.562L392.409 136.835V145.128Z" fill="#A298E2"/>
<path d="M461.106 184.933L396.697 147.613V139.319L461.106 176.64V184.933Z" fill="#F9DD79"/>
<path d="M392.407 158.4L369.499 145.128V136.835L392.407 150.107V158.4Z" fill="#A298E2"/>
<path d="M476.851 207.319L396.693 160.886V152.592L476.851 199.026V207.319Z" fill="#FF8657"/>
<path d="M392.41 171.663L369.503 158.403V150.11L392.41 163.369V171.663Z" fill="#A298E2"/>
<path d="M452.517 206.498L396.697 174.156V165.863L452.517 198.204V206.498Z" fill="#A298E2"/>
<path d="M392.41 131.856L369.503 118.584V110.303L392.41 123.562V131.856Z" fill="#A298E2"/>
<path d="M445.359 162.548L396.697 134.353V126.06L445.359 154.255V162.548Z" fill="#4D3BFF"/>
<path d="M392.409 184.936L369.501 171.664V163.371L392.409 176.643V184.936Z" fill="#A298E2"/>
<path d="M425.322 204.003L396.697 187.416V179.122L425.322 195.71V204.003Z" fill="#C33AFC"/>
<path d="M392.409 211.466L369.501 198.194V189.913L392.409 203.172V211.466Z" fill="#A298E2"/>
<path d="M486.869 266.205L396.693 213.961V205.668L486.869 257.912V266.205Z" fill="#F9DD79"/>
<path d="M392.407 224.738L369.499 211.466V203.172L392.407 216.445V224.738Z" fill="#A298E2"/>
<path d="M423.893 242.976L396.697 227.221V218.927L423.893 234.683V242.976Z" fill="#FF8657"/>
<path d="M392.407 238.008L369.499 224.737V216.443L392.407 229.715V238.008Z" fill="#A298E2"/>
<path d="M476.854 286.927L396.697 240.494V232.2L476.854 278.646V286.927Z" fill="#A298E2"/>
<path d="M392.407 198.205L369.499 184.933V176.64L392.407 189.912V198.205Z" fill="#A298E2"/>
<path d="M472.55 244.639L396.693 200.689V192.395L472.55 236.345V244.639Z" fill="#4D3BFF"/>
<path d="M392.409 251.269L369.501 237.997V229.716L392.409 242.976V251.269Z" fill="#A298E2"/>
<path d="M406.715 259.564L396.697 253.766V245.473L406.715 251.271V259.564Z" fill="#C33AFC"/>
<path d="M392.407 277.811L369.499 264.54V256.246L392.407 269.519V277.811Z" fill="#A298E2"/>
<path d="M415.304 291.073L396.697 280.297V272.003L415.304 282.78V291.073Z" fill="#F9DD79"/>
<path d="M392.409 291.074L369.501 277.814V269.521L392.409 282.781V291.074Z" fill="#A298E2"/>
<path d="M445.359 321.765L396.697 293.569V285.276L445.359 313.471V321.765Z" fill="#FF8657"/>
<path d="M392.409 304.344L369.501 291.072V282.778L392.409 296.051V304.344Z" fill="#A298E2"/>
<path d="M473.984 351.609L396.697 306.827V298.534L473.984 343.316V351.609Z" fill="#A298E2"/>
<path d="M392.407 264.541L369.499 251.269V242.975L392.407 256.248V264.541Z" fill="#A298E2"/>
<path d="M494.032 323.416L396.697 267.026V258.732L494.032 315.123V323.416Z" fill="#4D3BFF"/>
<path d="M252.316 229.13L167.425 179.946C162.089 176.886 157.769 168.573 157.769 161.443V27.4068C157.769 20.2669 162.089 17.003 167.425 20.0834L252.316 69.2773C257.642 72.3373 261.962 80.6502 261.962 87.7799V221.837C261.962 228.977 257.642 232.22 252.316 229.13Z" fill="#3D4077"/>
<path d="M255.709 231.089L258.616 229.652L256.655 225.785L255.709 231.089Z" fill="#3D4077"/>
<path d="M159.356 20.4618C160.21 19.952 161.108 19.5186 162.038 19.1665L164.193 23.4402L159.356 20.4618Z" fill="#3D4077"/>
<path d="M250.091 230.251L165.189 181.037C159.864 177.977 155.544 169.663 155.544 162.534V28.5282C155.544 21.3882 159.864 18.114 165.189 21.2046L250.091 70.3986C255.417 73.4585 259.736 81.7612 259.736 88.891V222.928C259.736 230.057 255.417 233.342 250.091 230.251V230.251Z" fill="#232449"/>
<path d="M180.63 49.1544L165.19 40.2092V34.6196L180.63 43.5648V49.1544Z" fill="#A298E2"/>
<path d="M249.125 88.8423L183.526 50.8273V45.2479L249.125 83.2527V88.8423Z" fill="#C33AFC"/>
<path d="M180.63 67.0456L165.19 58.1004V52.5108L180.63 61.4562V67.0456Z" fill="#A298E2"/>
<path d="M226.937 93.8706L183.526 68.7177V63.1282L226.937 88.2811V93.8706Z" fill="#F9DD79"/>
<path d="M180.63 75.9783L165.19 67.0433V61.4537L180.63 70.3888V75.9783Z" fill="#A298E2"/>
<path d="M237.549 108.966L183.526 77.6625V72.0729L237.549 103.376V108.966Z" fill="#FF8657"/>
<path d="M180.63 84.924L165.19 75.9788V70.3892L180.63 79.3345V84.924Z" fill="#A298E2"/>
<path d="M221.153 108.404L183.526 86.6072V81.0176L221.153 102.815V108.404Z" fill="#A298E2"/>
<path d="M180.63 58.0992L165.19 49.1538V43.5643L180.63 52.5096V58.0992Z" fill="#A298E2"/>
<path d="M216.326 78.7837L183.526 59.7712V54.1817L216.326 73.184V78.7837Z" fill="#4D3BFF"/>
<path d="M180.63 93.8706L165.19 84.9254V79.3358L180.63 88.281V93.8706Z" fill="#A298E2"/>
<path d="M202.817 106.722L183.526 95.5423V89.9531L202.817 101.132V106.722Z" fill="#C33AFC"/>
<path d="M180.63 111.75L165.19 102.815V97.225L180.63 106.17V111.75Z" fill="#A298E2"/>
<path d="M244.307 148.644L183.526 113.434V107.845L244.307 143.054V148.644Z" fill="#F9DD79"/>
<path d="M180.63 120.695L165.19 111.751V106.161L180.63 115.106V120.695Z" fill="#A298E2"/>
<path d="M201.852 132.997L183.526 122.379V116.789L201.852 127.407V132.997Z" fill="#FF8657"/>
<path d="M180.63 129.64L165.19 120.695V115.106L180.63 124.051V129.64Z" fill="#A298E2"/>
<path d="M237.549 162.616L183.526 131.313V125.734L237.549 157.027V162.616Z" fill="#A298E2"/>
<path d="M180.63 102.817L165.19 93.8718V88.2824L180.63 97.2278V102.817Z" fill="#A298E2"/>
<path d="M234.651 134.12L183.526 104.489V98.9001L234.651 128.53V134.12Z" fill="#4D3BFF"/>
<path d="M180.63 138.585L165.19 129.64V124.05L180.63 132.996V138.585Z" fill="#A298E2"/>
<path d="M190.275 144.176L183.526 140.259V134.669L190.275 138.586V144.176Z" fill="#C33AFC"/>
<path d="M180.63 156.466L165.19 147.531V141.941L180.63 150.887V156.466Z" fill="#A298E2"/>
<path d="M196.068 165.413L183.526 158.151V152.561L196.068 159.823V165.413Z" fill="#F9DD79"/>
<path d="M180.63 165.412L165.19 156.466V150.877L180.63 159.822V165.412Z" fill="#A298E2"/>
<path d="M216.326 186.097L183.526 167.095V161.506L216.326 180.507V186.097Z" fill="#FF8657"/>
<path d="M180.63 174.356L165.19 165.412V159.822L180.63 168.767V174.356Z" fill="#A298E2"/>
<path d="M235.617 206.222L183.526 176.03V170.441L235.617 200.632V206.222Z" fill="#A298E2"/>
<path d="M180.63 147.532L165.19 138.586V132.997L180.63 141.942V147.532Z" fill="#A298E2"/>
<path d="M249.125 187.22L183.526 149.205V143.616L249.125 181.621V187.22Z" fill="#4D3BFF"/>
<path d="M92.9304 99.8912L26.9945 61.6891C22.8498 59.3124 19.4946 52.8557 19.4946 47.318V6.58908C19.4946 1.04343 22.8498 -1.49173 26.9945 0.900823L92.9304 39.1104C97.0676 41.4871 100.423 47.9438 100.423 53.4816V94.2262C100.423 99.7725 97.0676 102.292 92.9304 99.8912Z" fill="#32356F"/>
<path d="M95.5691 101.413L97.8272 100.296L96.3033 97.2937L95.5691 101.413Z" fill="#32356F"/>
<path d="M20.7272 1.19567C21.3912 0.799702 22.0886 0.463032 22.8114 0.189529L24.485 3.509L20.7272 1.19567Z" fill="#32356F"/>
<path d="M91.2024 100.761L25.2586 62.5355C21.1218 60.1587 17.7666 53.702 17.7666 48.1643V7.45914C17.7666 1.91347 21.1218 -0.629603 25.2586 1.77087L91.2024 39.9805C95.3394 42.3572 98.6946 48.806 98.6946 54.3437V95.0722C98.6946 100.61 95.3394 103.161 91.2024 100.761Z" fill="#1F2149"/>
<path d="M37.2512 23.48L25.2593 16.5321V12.1907L37.2512 19.1386V23.48Z" fill="#A298E2"/>
<path d="M90.453 54.3056L39.5011 24.7789V20.4453L90.453 49.9641V54.3056Z" fill="#C33AFC"/>
<path d="M37.2512 37.3746L25.2593 30.4266V26.0852L37.2512 33.0331V37.3746Z" fill="#A298E2"/>
<path d="M73.2191 58.2105L39.5011 38.6739V34.3325L73.2191 53.8691V58.2105Z" fill="#F9DD79"/>
<path d="M37.2512 44.3149L25.2593 37.3748V33.0334L37.2512 39.9734V44.3149Z" fill="#A298E2"/>
<path d="M81.461 69.936L39.5011 45.6222V41.2807L81.461 65.5945V69.936Z" fill="#FF8657"/>
<path d="M37.2512 51.2636L25.2593 44.3157V39.9743L37.2512 46.9222V51.2636Z" fill="#A298E2"/>
<path d="M68.7271 69.5005L39.5011 52.5704V48.2289L68.7271 65.159V69.5005Z" fill="#A298E2"/>
<path d="M37.2512 30.4282L25.2593 23.4803V19.1389L37.2512 26.0868V30.4282Z" fill="#A298E2"/>
<path d="M64.9771 46.4931L39.5011 31.7257V27.3843L64.9771 42.1437V46.4931Z" fill="#4D3BFF"/>
<path d="M37.2512 58.2118L25.2593 51.2639V46.9225L37.2512 53.8704V58.2118Z" fill="#A298E2"/>
<path d="M54.4851 68.1942L39.5011 59.5112V55.1698L54.4851 63.8527V68.1942Z" fill="#C33AFC"/>
<defs>
<linearGradient id="paint0_linear" x1="330.737" y1="267.941" x2="676.569" y2="267.941" gradientUnits="userSpaceOnUse">
<stop offset="0.21" stop-color="white" stop-opacity="0"/>
<stop offset="1" stop-color="white" stop-opacity="0.2"/>
</linearGradient>
</defs>
</svg>
