<svg width="71" height="71" viewBox="0 0 71 71" fill="none" xmlns="http://www.w3.org/2000/svg">
<path fill-rule="evenodd" clip-rule="evenodd" d="M35.3862 0.978394H1.11778L8.06864 62.8038L35.3862 69.9746L62.7046 62.8038L69.6555 0.978394" fill="#0066A9"/>
<path fill-rule="evenodd" clip-rule="evenodd" d="M9.19364 62.0418L35.3896 68.8191L61.5865 62.0418L68.3168 2.00384H2.48498L9.19364 62.0418ZM35.3896 71L6.95017 63.6326L0 0H71L64.0715 63.6326L35.3896 71Z" fill="#111840"/>
<path fill-rule="evenodd" clip-rule="evenodd" d="M58.0255 59.2523L63.6128 5.81653H35.6345V64.439" fill="#13A1D1"/>
<path fill-rule="evenodd" clip-rule="evenodd" d="M35.3868 57.2469L18.1431 52.8465L16.7796 40.2925L25.0716 40.0959L25.5329 46.6576L35.1669 49.4471L45.4607 45.6555V36.6774L16.3612 36.3043L15.459 29.1337L36.289 21.3347L14.9976 20.9406L14.3378 13.7709H56.6567L56.4368 21.354L35.8266 28.937L55.0956 29.1538L53.0712 52.6488" fill="#FEFEFE"/>
</svg>
