<svg width="71" height="71" viewBox="0 0 71 71" fill="none" xmlns="http://www.w3.org/2000/svg">
<path fill-rule="evenodd" clip-rule="evenodd" d="M35.5114 0.955292H1.54221L8.20991 62.6583L35.5114 69.8159L62.79 62.6583L69.6755 0.955292" fill="#E4492F"/>
<path fill-rule="evenodd" clip-rule="evenodd" d="M9.31742 61.8791L35.4895 68.6268L61.6388 61.8791L68.3289 1.94413H2.88813L9.31742 61.8791ZM35.5105 70.9998L7.10228 63.6681L0 0H71L63.9196 63.6681L35.5105 70.9998Z" fill="#131741"/>
<path fill-rule="evenodd" clip-rule="evenodd" d="M57.4358 59.0981L63.2128 5.52377H35.2395V64.4459" fill="#E96D31"/>
<path fill-rule="evenodd" clip-rule="evenodd" d="M45.2334 45.6027L35.2431 49.1807L25.4903 46.3999V40.4499L16.3683 40.2363L17.4757 51.943L35.0243 57.0958L52.9651 52.3313L55.2029 28.8988H23.4922L22.6014 20.9837H55.8759L56.332 13.2239H13.5226L15.9771 36.4439H45.255" fill="white"/>
</svg>
