<svg width="71" height="71" viewBox="0 0 71 71" fill="none" xmlns="http://www.w3.org/2000/svg">
<path d="M71 35.5C71 40.1251 70.1161 44.5431 68.5063 48.5959C67.6455 50.7636 66.5776 52.8269 65.3257 54.7599C63.7666 57.1709 61.922 59.3807 59.8414 61.3397C58.6227 62.4887 57.3245 63.5508 55.9537 64.5188C50.1723 68.6019 43.1172 71 35.5 71C27.8828 71 20.8277 68.6019 15.0462 64.5188C13.3305 63.3075 11.728 61.9497 10.2573 60.4601C3.91512 54.0483 0 45.2299 0 35.5C0 25.7701 3.91512 16.9517 10.2573 10.5399C11.815 8.96347 13.5204 7.53321 15.3504 6.26977C21.074 2.3154 28.016 0 35.5 0C42.984 0 49.926 2.3154 55.6496 6.26977C57.0478 7.2334 58.3723 8.29688 59.6139 9.44882C61.7889 11.46 63.7102 13.7421 65.3258 16.2401C66.5778 18.1731 67.6457 20.2364 68.5064 22.4041C70.1161 26.4569 71 30.8749 71 35.5Z" fill="#E4BA42"/>
<path d="M54.2277 32.3064C53.2396 29.4409 49.1882 29.4409 48.3979 31.8123C47.6075 34.1837 50.2754 35.567 54.4254 36.9505C58.5755 38.3339 61.1446 41.99 60.6505 45.2506C60.1564 48.5112 58.7731 52.7602 50.5719 52.7602C45.4461 52.7602 42.5975 49.5565 41.1818 47.1539L45.8289 44.3613C45.8289 44.3613 47.4099 47.7209 50.3741 47.7209C53.3385 47.7209 54.5241 46.7328 54.5241 44.4602C54.5241 41.6935 44.9394 40.7055 43.4573 35.9625C41.9752 31.2195 43.9514 24.5004 50.8681 24.9943C55.1912 25.3032 57.6228 27.426 58.8386 28.9746L54.2277 32.3064Z" fill="#F2F2F2"/>
<path d="M32.6869 25.4886C32.6869 25.4886 32.6869 42.1876 32.6869 44.4603C32.6869 46.7328 30.7107 47.9188 28.7345 47.5234C26.7583 47.1282 25.869 44.7568 25.869 44.7568L21.3237 47.8199C21.3237 47.8199 22.3118 52.3651 28.5369 52.7605C34.762 53.1557 38.3191 49.4009 38.3191 46.2389C38.3191 43.0769 38.3191 25.4886 38.3191 25.4886H32.6869Z" fill="#F2F2F2"/>
<path d="M10.2573 6.26978V60.4601C11.728 61.9497 13.3305 63.3073 15.0462 64.5188H55.9538C57.3246 63.5508 58.6228 62.4888 59.8415 61.3397H13.4363V9.44883H65.3257V54.7599C66.5776 52.8269 67.6455 50.7636 68.5063 48.5959V6.26978H10.2573Z" fill="#F2F2F2"/>
<path d="M12.183 52.6618C15.2936 52.6618 17.8152 50.1402 17.8152 47.0296C17.8152 43.919 15.2936 41.3974 12.183 41.3974C9.07245 41.3974 6.55084 43.919 6.55084 47.0296C6.55084 50.1402 9.07245 52.6618 12.183 52.6618Z" fill="#3F4A43"/>
</svg>
