<svg width="22" height="22" viewBox="0 0 22 22" fill="none" xmlns="http://www.w3.org/2000/svg">
<path d="M15.8113 22C15.1012 22 14.397 21.8745 13.7085 21.6243C10.6751 20.5224 7.85945 18.7277 5.56588 16.4341C3.27231 14.1406 1.47757 11.3249 0.375685 8.29149C0.0215937 7.3167 -0.0829024 6.31042 0.0652054 5.30049C0.203946 4.35454 0.570368 3.4362 1.1249 2.64475C1.68188 1.84982 2.42444 1.18864 3.27226 0.732713C4.17637 0.246545 5.1632 0 6.2054 0C6.52952 0 6.80967 0.226479 6.87762 0.543404L7.95669 5.57909C8.00553 5.80712 7.93544 6.04438 7.77063 6.20929L5.92676 8.05307C7.66616 11.5113 10.4886 14.3338 13.9468 16.0731L15.7906 14.2293C15.9554 14.0644 16.1928 13.9945 16.4208 14.0432L21.4565 15.1223C21.7734 15.1902 21.9999 15.4703 21.9999 15.7945C21.9999 16.8367 21.7534 17.8236 21.2671 18.7277C20.8112 19.5755 20.15 20.3181 19.3551 20.875C18.5637 21.4296 17.6454 21.796 16.6994 21.9348C16.4029 21.9783 16.1066 21.9999 15.8113 22ZM5.65611 1.40502C4.28138 1.55678 3.06121 2.27734 2.25093 3.43379C1.33978 4.73419 1.12731 6.33361 1.668 7.82207C3.78645 13.6538 8.34615 18.2135 14.1779 20.332C15.6663 20.8727 17.2658 20.6603 18.5662 19.749C19.7227 18.9388 20.4432 17.7186 20.595 16.3439L16.4985 15.4661L14.5728 17.3917C14.3679 17.5965 14.0566 17.651 13.7944 17.5278C9.70437 15.6063 6.39368 12.2956 4.47221 8.20556C4.34902 7.94332 4.40341 7.63199 4.60832 7.42714L6.53392 5.50153L5.65611 1.40502Z" fill="#89A3FF"/>
<path d="M21.3125 11.687C20.9328 11.687 20.625 11.3792 20.625 10.9996C20.625 5.69253 16.3074 1.37494 11.0004 1.37494C10.6207 1.37494 10.3129 1.06713 10.3129 0.687475C10.3129 0.307815 10.6207 0 11.0004 0C13.9385 0 16.7008 1.14413 18.7783 3.22167C20.8558 5.2992 22 8.06143 22 10.9996C22 11.3792 21.6922 11.687 21.3125 11.687Z" fill="#89A3FF"/>
<path d="M18.5626 11.687C18.183 11.687 17.8751 11.3792 17.8751 10.9996C17.8751 7.20884 14.7911 4.12484 11.0004 4.12484C10.6207 4.12484 10.3129 3.81703 10.3129 3.43737C10.3129 3.05771 10.6207 2.74989 11.0004 2.74989C15.5493 2.74989 19.2501 6.45066 19.2501 10.9996C19.2501 11.3792 18.9423 11.687 18.5626 11.687Z" fill="#89A3FF"/>
<path d="M15.8127 11.687C15.4331 11.687 15.1253 11.3792 15.1253 10.9996C15.1253 8.72507 13.2749 6.87475 11.0004 6.87475C10.6207 6.87475 10.3129 6.56687 10.3129 6.18725C10.3129 5.80759 10.6207 5.49977 11.0004 5.49977C14.033 5.49977 16.5002 7.96695 16.5002 10.9996C16.5002 11.3792 16.1924 11.687 15.8127 11.687Z" fill="#89A3FF"/>
</svg>
