<svg width="33" height="22" viewBox="0 0 33 22" fill="none" xmlns="http://www.w3.org/2000/svg">
<path d="M30.0996 0H2.90039C1.30311 0 0 1.13926 0 2.53846V19.4615C0 20.856 1.29731 22 2.90039 22H30.0996C31.6929 22 33 20.8645 33 19.4615V2.53846C33 1.144 31.7027 0 30.0996 0ZM29.6991 1.69231L16.5615 13.1906L3.31025 1.69231H29.6991ZM1.93359 19.1111V2.88082L11.2457 10.961L1.93359 19.1111ZM3.30083 20.3077L12.6188 12.1525L15.8838 14.9855C16.2618 15.3134 16.8717 15.3124 17.2481 14.9829L20.4317 12.1966L29.6992 20.3077H3.30083ZM31.0664 19.1111L21.7989 11L31.0664 2.88888V19.1111Z" fill="#89A3FF"/>
</svg>
